<svg xmlns="http://www.w3.org/2000/svg" viewBox="0 0 100 100" fill="none">
  <!-- Shield outline -->
  <path d="M50 8C38 8 26 12 14 20V50C14 65 26 78 50 88C74 78 86 65 86 50V20C74 12 62 8 50 8Z" 
        stroke="currentColor" stroke-width="4" fill="none"/>
  
  <!-- Circuit board pattern -->
  <g stroke="currentColor" stroke-width="2.5" stroke-linecap="round" fill="none">
    <!-- Connection points (nodes) -->
    <circle cx="35" cy="35" r="2.5"/>
    <circle cx="60" cy="42" r="2.5"/>
    <circle cx="45" cy="65" r="2.5"/>
    
    <!-- Connection lines -->
    <line x1="25" y1="45" x2="35" y2="35"/>
    <line x1="35" y1="35" x2="50" y2="35"/>
    <line x1="50" y1="35" x2="60" y2="42"/>
    <line x1="35" y1="35" x2="35" y2="55"/>
    <line x1="35" y1="55" x2="45" y2="65"/>
    <line x1="45" y1="65" x2="65" y2="55"/>
    <line x1="60" y1="42" x2="60" y2="50"/>
  </g>
</svg>