<svg version="1.1" id="Layer_1" xmlns="http://www.w3.org/2000/svg" xmlns:xlink="http://www.w3.org/1999/xlink" x="0px" y="0px"
	 width="100%" viewBox="0 0 1024 1024" enable-background="new 0 0 1024 1024" xml:space="preserve">
<path fill="#000000" opacity="1.000000" stroke="none" 
	d="
M620.597656,223.276459 
	C656.870300,235.848816 693.716309,244.389435 731.344421,249.452484 
	C749.461914,251.890274 767.690491,253.394287 785.999023,253.705582 
	C790.143433,253.776031 794.319885,254.166824 798.408264,254.849640 
	C806.177612,256.147247 811.282654,263.248901 811.297607,272.642914 
	C811.342712,300.970947 811.312439,329.299103 811.309387,357.627228 
	C811.303467,412.617096 811.189331,467.607239 811.320923,522.596802 
	C811.438171,571.597778 797.710999,616.340820 770.889465,657.234192 
	C750.542664,688.255859 725.492554,715.035278 697.754211,739.490051 
	C650.558105,781.099304 597.914856,814.282837 541.181274,841.172424 
	C534.116455,844.520874 526.785889,847.305786 519.694397,850.601379 
	C514.956360,852.803162 510.553711,852.595215 505.772858,850.616150 
	C474.138336,837.520691 444.159851,821.273254 415.061493,803.327881 
	C372.354401,776.989685 332.695648,746.762695 297.860565,710.520874 
	C268.997467,680.492310 244.685776,647.322388 229.802551,608.002136 
	C222.181824,587.868713 217.457230,567.058167 215.489929,545.549866 
	C214.483673,534.548462 214.717621,523.588928 214.706879,512.613770 
	C214.628296,432.295197 214.662445,351.976532 214.661316,271.657867 
	C214.661133,259.333710 220.294907,253.746552 232.616821,253.640823 
	C297.628174,253.083008 360.354523,240.629974 421.004822,217.387909 
	C449.969299,206.288300 478.045746,193.269424 505.155182,178.205994 
	C510.183380,175.412064 514.405396,175.343445 519.574890,178.220520 
	C551.792358,196.151154 585.404053,211.023773 620.597656,223.276459 
M516.144226,408.808411 
	C507.906250,409.222046 499.224731,408.929413 492.367218,404.827271 
	C483.217682,399.353973 477.401184,403.209991 470.449524,408.343536 
	C426.112610,441.084625 381.594025,473.579651 337.148743,506.174042 
	C311.904755,524.687012 286.698944,543.252075 261.439972,561.744507 
	C258.342682,564.012085 257.041809,566.199829 258.073639,570.501099 
	C264.143463,595.803589 275.521576,618.586182 289.987030,639.988892 
	C295.929169,648.780762 296.053711,648.943848 304.643280,642.696167 
	C345.596039,612.909058 386.475464,583.021118 427.385254,553.174927 
	C461.027802,528.630615 494.682281,504.102814 528.320251,479.552277 
	C552.403748,461.975098 576.456726,444.356079 600.561462,426.808167 
	C602.824463,425.160736 603.738525,423.623657 602.969116,420.574738 
	C601.038086,412.923035 600.935364,405.033722 602.201355,397.283966 
	C606.830139,368.948486 632.887329,347.143280 665.369934,350.527588 
	C699.384521,354.071503 722.602539,386.472015 715.704651,419.049591 
	C707.984985,455.508270 670.546570,475.109497 636.216736,460.460907 
	C629.472351,457.583069 624.793640,457.896301 619.848145,462.610535 
	C619.608704,462.838745 619.317627,463.013336 619.047668,463.208832 
	C566.299805,501.401245 513.498291,539.519775 460.820007,577.807861 
	C416.231903,610.215820 371.782379,642.814392 327.283325,675.344727 
	C322.185608,679.071289 322.173767,679.337830 326.688690,683.976440 
	C342.051636,699.760315 358.473389,714.385986 375.719543,728.061279 
	C404.759491,751.088440 435.730499,771.246521 468.069458,789.305786 
	C474.828857,793.080505 481.516022,797.076660 488.804169,799.943848 
	C490.155060,797.567444 489.620544,795.362183 489.622650,793.263794 
	C489.660614,755.431580 489.780518,717.598450 489.537323,679.767822 
	C489.490204,672.440186 492.377411,667.567627 498.058441,663.417419 
	C531.552429,638.949097 564.900879,614.281189 598.433411,589.866089 
	C602.165100,587.148987 603.231201,584.568359 602.426208,580.012085 
	C600.518677,569.215515 601.446533,558.552551 605.323608,548.142090 
	C613.001465,527.526428 635.552612,511.807343 660.836853,512.423279 
	C697.093689,513.306580 722.682068,546.642517 715.631531,580.621521 
	C707.767883,618.518494 668.771667,637.622925 633.102661,621.602051 
	C629.222717,619.859375 626.289429,619.025024 622.259399,621.988037 
	C592.065308,644.187378 561.671570,666.115662 531.270752,688.032410 
	C528.403381,690.099548 527.267334,692.384338 527.279785,695.939514 
	C527.397522,729.771423 527.343140,763.604004 527.353882,797.436340 
	C527.356079,804.385742 527.907959,804.740906 533.971680,801.686035 
	C573.958801,781.540649 611.726074,757.840820 647.160645,730.480774 
	C683.103882,702.728027 715.514160,671.551819 740.456848,633.203552 
	C761.612183,600.678040 772.511597,565.050232 772.617188,526.286133 
	C772.791077,462.455109 772.661011,398.623291 772.658142,334.791809 
	C772.657532,322.292175 772.527527,309.790558 772.727112,297.294159 
	C772.784973,293.669861 771.383301,292.133575 768.011536,291.714264 
	C762.561768,291.036560 757.069031,290.984741 751.602112,290.530060 
	C722.742981,288.129913 694.256348,283.458282 666.123230,276.749878 
	C614.392517,264.414612 565.074707,245.538635 517.930603,220.989990 
	C514.232788,219.064453 511.440216,219.205643 507.810059,221.081223 
	C496.864838,226.736237 485.816193,232.224136 474.592682,237.301514 
	C426.815094,258.915466 377.284546,274.988312 325.520477,283.880035 
	C303.724091,287.624084 281.816925,290.413361 259.704681,291.322906 
	C253.242569,291.588715 253.121048,291.503296 253.119049,298.220337 
	C253.097809,369.717804 253.086884,441.215240 253.109894,512.712708 
	C253.110489,514.599060 252.480911,516.770813 254.518143,518.178345 
	C256.435822,518.237000 257.560028,516.871033 258.866791,515.903137 
	C292.200989,491.215302 325.509918,466.493347 358.858673,441.825165 
	C390.061737,418.744263 421.286652,395.692627 452.560272,372.707428 
	C455.692871,370.405060 457.079102,368.337463 456.013672,364.012421 
	C453.723114,354.714233 453.938232,345.208160 456.428558,335.876740 
	C462.937836,311.486115 486.833466,291.201080 518.145020,293.439026 
	C544.868286,295.349091 570.273499,317.179596 571.276428,349.629578 
	C572.246643,381.022430 548.388855,407.055298 516.144226,408.808411 
M496.383148,364.091705 
	C505.032990,373.389191 518.194580,374.539246 527.107605,366.776459 
	C535.956055,359.069885 537.052979,345.894348 529.603699,336.795288 
	C522.489136,328.105072 508.631958,326.370636 499.992767,333.089081 
	C490.127563,340.760925 488.467682,353.131866 496.383148,364.091705 
M640.706055,417.653839 
	C641.375610,418.605377 642.002930,419.590149 642.721252,420.503326 
	C650.472107,430.357300 664.410645,431.532990 673.590088,423.120209 
	C682.231323,415.200714 682.179321,400.596893 673.480530,392.338013 
	C666.097839,385.328735 655.867432,384.412048 647.355896,389.997223 
	C638.731506,395.656464 636.005066,406.138977 640.706055,417.653839 
M638.789673,575.429443 
	C642.640442,586.404114 650.193054,591.448303 661.590576,590.657532 
	C673.363525,589.840698 681.067261,579.284119 679.659729,565.896729 
	C678.628784,556.089966 667.351624,547.783020 657.274902,548.917297 
	C646.899414,550.085022 635.941223,558.961304 638.789673,575.429443 
z"/>
</svg>